<svg xmlns="http://www.w3.org/2000/svg" xmlns:xlink="http://www.w3.org/1999/xlink" viewBox="0 0 458.286 125.727"><defs><style>.cls-1,.cls-14{fill:none;}.cls-2{isolation:isolate;}.cls-3,.cls-5{fill:#fff;}.cls-3{opacity:0;}.cls-10,.cls-3,.cls-4{mix-blend-mode:multiply;}.cls-4{fill:url(#radial-gradient);}.cls-6,.cls-9{opacity:0.8;}.cls-6{fill:url(#radial-gradient-2);}.cls-7{opacity:0.77;}.cls-8{clip-path:url(#clip-path);}.cls-9{fill:url(#radial-gradient-3);}.cls-11{fill:#ed1c24;}.cls-12{fill:url(#linear-gradient);}.cls-13,.cls-15{fill:#6d6e71;}.cls-14{stroke:#6d6e71;stroke-width:0.5px;}.cls-15{font-size:18px;font-family:Georgia;}</style><radialGradient id="radial-gradient" cx="192.809" cy="217.05" r="35.097" gradientTransform="translate(81.967 76.797) rotate(5.999)" gradientUnits="userSpaceOnUse"><stop offset="0.7"/><stop offset="1" stop-opacity="0"/></radialGradient><radialGradient id="radial-gradient-2" cx="190.878" cy="212.763" fy="195.39503133731316" r="33.669" gradientTransform="translate(82.07 75.821) rotate(5.999)" gradientUnits="userSpaceOnUse"><stop offset="0.059" stop-color="#fff"/><stop offset="0.458" stop-color="#fdfdfd"/><stop offset="0.601" stop-color="#f6f6f6"/><stop offset="0.672" stop-color="#efefef"/><stop offset="0.847" stop-color="#e0e0e0"/><stop offset="0.969" stop-color="#c2c2c2"/><stop offset="1" stop-color="#fff"/></radialGradient><clipPath id="clip-path" transform="translate(-186.549 -245.915)"><path class="cls-1" d="M282.4,312.248a33.173,33.173,0,1,1-29.524-36.463A33.175,33.175,0,0,1,282.4,312.248Z"/></clipPath><radialGradient id="radial-gradient-3" cx="404.965" cy="-180.067" fy="-198.60703338165325" r="35.942" gradientTransform="matrix(0.933, -0.359, 0.361, 0.938, -64.117, 621.075)" gradientUnits="userSpaceOnUse"><stop offset="0.059" stop-color="#fff"/><stop offset="0.539" stop-color="#fdfdfd"/><stop offset="0.712" stop-color="#f6f6f6"/><stop offset="0.798" stop-color="#efefef"/><stop offset="0.914" stop-color="#e0e0e0"/><stop offset="0.939" stop-color="#c2c2c2"/><stop offset="0.957" stop-color="#cacaca"/><stop offset="0.98" stop-color="#fff"/><stop offset="1" stop-color="#fff"/></radialGradient><linearGradient id="linear-gradient" x1="-37.598" y1="69.849" x2="-37.598" y2="133.661" gradientTransform="translate(100.473 -38.725)" gradientUnits="userSpaceOnUse"><stop offset="0.38" stop-color="#fff"/><stop offset="1" stop-color="#999"/></linearGradient></defs><g class="cls-2"><g id="art"><rect class="cls-3" width="458.286" height="125.727"/><path class="cls-4" d="M285.936,316.473A35.094,35.094,0,1,1,254.7,277.9,35.1,35.1,0,0,1,285.936,316.473Z" transform="translate(-186.549 -245.915)"/><path class="cls-5" d="M282.408,312.248a33.173,33.173,0,1,1-29.53-36.463A33.173,33.173,0,0,1,282.408,312.248Z" transform="translate(-186.549 -245.915)"/><path class="cls-6" d="M282.408,312.248a33.173,33.173,0,1,1-29.53-36.463A33.173,33.173,0,0,1,282.408,312.248Z" transform="translate(-186.549 -245.915)"/><g class="cls-7"><g class="cls-8"><path class="cls-9" d="M281.906,294.482a35.413,35.413,0,1,1-45.783-20.321A35.413,35.413,0,0,1,281.906,294.482Z" transform="translate(-186.549 -245.915)"/></g></g><g class="cls-10"><polygon class="cls-11" points="85.16 55.428 70.298 55.425 70.302 40.567 55.448 40.567 55.448 55.425 40.591 55.425 40.591 70.278 55.448 70.278 55.448 85.135 70.298 85.135 70.298 70.278 85.16 70.278 85.16 55.428"/></g><g class="cls-10"><polygon class="cls-12" points="85.16 55.428 70.298 55.425 70.302 40.567 55.448 40.567 55.448 55.425 40.591 55.425 40.591 70.278 55.448 70.278 55.448 85.135 70.298 85.135 70.298 70.278 85.16 70.278 85.16 55.428"/></g><path class="cls-13" d="M316.02,305.939H322.1c-.186-.489-7.038-18.873-7.127-19.111h-6.463c-.089.236-7.111,18.617-7.3,19.111h6.078l.906-2.859h6.929S315.947,305.7,316.02,305.939ZM309.437,299l2.281-7.379L313.941,299Z" transform="translate(-186.549 -245.915)"/><path class="cls-13" d="M332.913,297.529a4.389,4.389,0,0,1,.081.846v7.564h5.2v-7.484a3.075,3.075,0,0,1,.292-1.457,1.861,1.861,0,0,1,1.851-1c2.137,0,2.062,1.754,2.062,2.6v7.347h5.191c0-.361,0-9.047,0-9.047l0-.011a5.124,5.124,0,0,0-1.27-3.947,5.306,5.306,0,0,0-3.76-1.346c-3.33,0-4.26,1.766-4.521,2.357l-.156.362-.182-.352a3.775,3.775,0,0,0-2.623-2.051,6.969,6.969,0,0,0-2.077-.316c-2.886,0-3.619,1.371-4.06,2.088l-.377.613v-2.35h-4.952v14h5.2v-7.624l.006-.092a2.185,2.185,0,0,1,.589-1.6,2.053,2.053,0,0,1,1.537-.623A1.9,1.9,0,0,1,332.913,297.529Z" transform="translate(-186.549 -245.915)"/><path class="cls-13" d="M360.227,300.8a2.9,2.9,0,0,1-2.708,1.925,2.511,2.511,0,0,1-1.811-.7,2.673,2.673,0,0,1-.731-2l-.01-.212h9.8c-.052-2.1-.135-4.337-2.072-6.252a8.067,8.067,0,0,0-5.5-2.216,7.178,7.178,0,0,0-7.52,7.516,7.617,7.617,0,0,0,1.87,5.15,7.537,7.537,0,0,0,5.676,2.478,8.548,8.548,0,0,0,7.255-3.918C364.1,302.414,360.5,300.919,360.227,300.8Zm-5.186-3.986a2.281,2.281,0,0,1,2.291-2.121,2.066,2.066,0,0,1,2.045,1.578,1.9,1.9,0,0,1,.066.365l.042.422h-4.5Z" transform="translate(-186.549 -245.915)"/><path class="cls-13" d="M371.75,291.832h-4.98v14.107h5.168V299.31c.026-.884.093-3.232,3.542-3.232.317,0,.829.018,1.14.038v-4.5a5.956,5.956,0,0,0-4.557,1.653l-.313.28Z" transform="translate(-186.549 -245.915)"/><path class="cls-13" d="M378.5,286.851h5.557v3.695H378.5Zm0,5.071h5.557v13.969H378.5Z" transform="translate(-186.549 -245.915)"/><path class="cls-13" d="M399.063,304.123a6.876,6.876,0,0,0,1.349-2c-.275-.152-3.672-2.014-4.013-2.2-.289.92-.968,2.451-2.648,2.451-1.183,0-2.594-.592-2.594-3.408,0-2.452,1.044-3.973,2.73-3.973,1.2,0,2.061.726,2.5,2.23.354-.2,3.72-2.1,4.015-2.268a7.544,7.544,0,0,0-1.1-1.407,8.085,8.085,0,0,0-5.685-2.287,7.129,7.129,0,0,0-7.6,7.544c0,4.536,2.857,7.653,7.275,7.653A7.871,7.871,0,0,0,399.063,304.123Z" transform="translate(-186.549 -245.915)"/><path class="cls-13" d="M406.788,306.244a7.143,7.143,0,0,0,4.487-1.354l.326-.224v1.276h4.953a2.611,2.611,0,0,1-.327-1.562v-7.817a4.758,4.758,0,0,0-.794-3.068c-.956-1.229-2.865-2.038-5.672-2.038a10.682,10.682,0,0,0-4.943,1.04,4.471,4.471,0,0,0-2.423,3.619c.414-.013,4.576-.12,4.842-.126.224-1.115.759-1.482,2.011-1.482,1.685,0,2.051.711,2.081,1.779l0,.148-.141.038a18.458,18.458,0,0,1-3,.6c-2.342.309-3.888.51-5.137,1.783a3.908,3.908,0,0,0-1.136,2.869C401.917,303.818,403.2,306.244,406.788,306.244Zm1.173-5.9h.006l0,0a13.4,13.4,0,0,1,1.3-.347s.137-.036.146-.036c.543-.152,1.069-.338,1.578-.515l.312-.108v.265a3.466,3.466,0,0,1-.288,1.61,3.131,3.131,0,0,1-2.741,1.631c-1.146,0-1.57-.628-1.57-1.117C406.705,301.5,406.8,300.807,407.961,300.341Z" transform="translate(-186.549 -245.915)"/><path class="cls-13" d="M428.4,298.265v7.674h5.2v-8.863c0-.754,0-2.953-1.35-4.272a5.024,5.024,0,0,0-3.58-1.247c-2.933,0-3.826,1.422-4.308,2.107l-.368.518v-2.27h-4.9v14.027h5.195v-7.484c0-.615.027-2.486,2.1-2.486S428.4,297.639,428.4,298.265Z" transform="translate(-186.549 -245.915)"/><path class="cls-13" d="M314.354,323.517l.332-.133a5.567,5.567,0,0,0,2.268-1.369,5.276,5.276,0,0,0,1.407-3.783c0-1.927-.836-4.457-3.183-5.457a13.371,13.371,0,0,0-4.634-.582h-9.332v19.12h5.679v-6.919h2.086s3.714,6.73,3.819,6.919h6.262c-.321-.531-4.59-7.608-4.59-7.608Zm-4.758-2.86h-2.7v-4.649h2.677c.94,0,3.137.012,3.137,2.319C312.705,320.68,310.445,320.657,309.6,320.657Z" transform="translate(-186.549 -245.915)"/><path class="cls-13" d="M335.789,323.987c0,4.551,2.4,7.678,6.114,7.678a5.638,5.638,0,0,0,2.044-.34,2.878,2.878,0,0,0,1.36-.974l.331-.379v1.341h5.03V312.221h-5.193v6.293l-.37-.332a4.438,4.438,0,0,0-3.39-1.284C338.766,316.9,335.789,319.219,335.789,323.987Zm7.468-3.3a2.276,2.276,0,0,1,2.125,1.752,5.6,5.6,0,0,1,.226,1.817,4.181,4.181,0,0,1-.787,2.892,2.226,2.226,0,0,1-1.538.677,2.109,2.109,0,0,1-1.544-.654,4.114,4.114,0,0,1-.835-2.888,7.726,7.726,0,0,1,.164-1.69v0l0-.006A2.273,2.273,0,0,1,343.257,320.687Z" transform="translate(-186.549 -245.915)"/><path class="cls-13" d="M329.8,326.2a2.9,2.9,0,0,1-2.709,1.927,2.527,2.527,0,0,1-1.811-.7,2.64,2.64,0,0,1-.727-2l-.011-.213h9.793c-.051-2.094-.134-4.336-2.073-6.251a8.068,8.068,0,0,0-5.5-2.219,7.179,7.179,0,0,0-7.52,7.52,7.633,7.633,0,0,0,1.869,5.149,7.553,7.553,0,0,0,5.679,2.476,8.546,8.546,0,0,0,7.254-3.916C333.668,327.809,330.073,326.316,329.8,326.2Zm-5.19-3.986A2.285,2.285,0,0,1,326.9,320.1a2.069,2.069,0,0,1,2.051,1.575,1.881,1.881,0,0,1,.06.363l.044.424h-4.5Z" transform="translate(-186.549 -245.915)"/><path class="cls-13" d="M364.712,325.447a7.5,7.5,0,0,1-.927-3.92,6.16,6.16,0,0,1,1.49-4.436,3.76,3.76,0,0,1,2.7-1.083c2.578,0,3.638,2.154,4.118,3.272.322-.161,4.464-2.227,4.778-2.382a9.8,9.8,0,0,0-9.138-5.381,9.232,9.232,0,0,0-7.229,3.224,11.28,11.28,0,0,0-2.482,7.135,10.729,10.729,0,0,0,2.347,6.881,9.356,9.356,0,0,0,7.364,3.154,10.266,10.266,0,0,0,7.279-2.8,11.481,11.481,0,0,0,1.89-2.774c-.315-.151-4.52-2.188-4.854-2.348-.919,2.524-2.729,3.239-4.042,3.239A3.642,3.642,0,0,1,364.712,325.447Z" transform="translate(-186.549 -245.915)"/><path class="cls-13" d="M402.967,318.723a9.3,9.3,0,0,0-11.783.19,8.317,8.317,0,0,0-.222,10.656,7.885,7.885,0,0,0,5.969,2.284,8.685,8.685,0,0,0,6.036-2.088,7.334,7.334,0,0,0,2.129-5.429A8.139,8.139,0,0,0,402.967,318.723Zm-5.873,9.428c-2.422,0-2.786-2.44-2.786-3.9,0-1.4.358-3.749,2.753-3.813a2.422,2.422,0,0,1,1.826.639,4.247,4.247,0,0,1,.965,3.119C399.852,327.466,398.351,328.151,397.094,328.151Z" transform="translate(-186.549 -245.915)"/><path class="cls-13" d="M417.753,323.105a15.926,15.926,0,0,0-3.714-1.039l-.108-.027c-1.843-.454-2.283-.551-2.283-1.133,0-.347.18-.92,1.381-.92a7.291,7.291,0,0,1,3.736,1.387c.188-.168,2.5-2.284,2.793-2.543a8.829,8.829,0,0,0-3.492-1.729,13.749,13.749,0,0,0-3.119-.375,6.788,6.788,0,0,0-4.82,1.616,4.675,4.675,0,0,0-1.348,3.208c0,2.844,2.426,3.629,3.734,4.009a23.718,23.718,0,0,0,2.893.64c.546.08,1.569.213,1.569,1.032,0,.727-.828,1.053-1.649,1.053a6.021,6.021,0,0,1-2.292-.472,6.806,6.806,0,0,1-2.173-1.467c-.228.208-2.593,2.384-2.871,2.636a11.086,11.086,0,0,0,7.389,2.87c4.466,0,6.467-2.531,6.467-5.187A3.924,3.924,0,0,0,417.753,323.105Z" transform="translate(-186.549 -245.915)"/><path class="cls-13" d="M432.455,323.105a15.937,15.937,0,0,0-3.718-1.039l-.107-.027c-1.841-.454-2.282-.551-2.282-1.133,0-.347.182-.92,1.385-.92a7.308,7.308,0,0,1,3.734,1.387c.185-.168,2.5-2.284,2.793-2.543a8.867,8.867,0,0,0-3.491-1.729,13.792,13.792,0,0,0-3.121-.375,6.785,6.785,0,0,0-4.82,1.616,4.67,4.67,0,0,0-1.348,3.208c0,2.844,2.428,3.629,3.731,4.009a23.772,23.772,0,0,0,2.9.64c.547.08,1.565.213,1.565,1.032,0,.727-.826,1.053-1.648,1.053a6.028,6.028,0,0,1-2.291-.472,6.835,6.835,0,0,1-2.172-1.467c-.229.208-2.594,2.384-2.87,2.636a11.075,11.075,0,0,0,7.387,2.87c4.469,0,6.465-2.531,6.465-5.187A3.923,3.923,0,0,0,432.455,323.105Z" transform="translate(-186.549 -245.915)"/><path class="cls-13" d="M383.277,317.226H378.3v14.112h5.168v-6.632c.026-.884.093-3.235,3.54-3.235.317,0,.828.02,1.139.043v-4.506a5.966,5.966,0,0,0-4.555,1.659l-.315.278Z" transform="translate(-186.549 -245.915)"/><line class="cls-14" x1="261.903" y1="29.686" x2="261.903" y2="96.04"/><text class="cls-15" transform="translate(276.76 57.953)">Cascades Region<tspan x="0" y="21.6">Historical Archives</tspan></text></g></g></svg>